<svg width="32" height="10" viewBox="0 0 32 10" fill="none" xmlns="http://www.w3.org/2000/svg">
<g clip-path="url(#clip0_7_1001)">
<path d="M20.8798 21.2511C22.0751 21.2511 23.044 22.2233 23.044 23.4225V32.7368C23.044 33.936 22.0751 34.908 20.8798 34.908C19.6847 34.908 18.7157 33.936 18.7157 32.7368V23.4225C18.7157 22.2234 19.6847 21.2513 20.8798 21.2513V21.2511ZM2.6845 11.3086C3.87961 11.3086 4.84858 12.2808 4.84858 13.4799V22.7943C4.84858 23.9935 3.87961 24.9656 2.6845 24.9656C1.48924 24.9656 0.520264 23.9935 0.520264 22.7944V13.4801C0.520112 12.2809 1.48909 11.3086 2.6845 11.3086ZM29.3114 11.3086C30.5065 11.3086 31.4755 12.2808 31.4755 13.4799V22.7943C31.4755 23.9935 30.5065 24.9656 29.3114 24.9656C28.1161 24.9656 27.1471 23.9935 27.1471 22.7944V13.4801C27.1471 12.2809 28.1161 11.3086 29.3114 11.3086ZM6.23836 9.12571C6.29854 4.791 10.0696 1.23694 14.9102 0.768555H17.0852C21.9261 1.23709 25.6969 4.79131 25.757 9.12571H6.23836Z" fill="white"/>
<path d="M25.0052 0.350586L22.7221 4.31784M6.99146 0.350586L9.27438 4.31784L6.99146 0.350586Z" stroke="white" stroke-width="0.457408" stroke-linecap="round" stroke-linejoin="round"/>
<path d="M13.0906 5.24182C13.0925 5.84774 12.5926 6.34037 11.9741 6.34204C11.3559 6.34357 10.8531 5.85384 10.8513 5.24792V5.24182C10.8497 4.63576 11.3495 4.14328 11.9679 4.14161C12.5861 4.13993 13.0888 4.62951 13.0906 5.23573V5.24182ZM21.4485 5.24182C21.4503 5.84774 20.9505 6.34037 20.3319 6.34204C19.7137 6.34357 19.211 5.85384 19.2092 5.24792V5.24182C19.2075 4.63576 19.7073 4.14328 20.3257 4.14161C20.9439 4.13993 21.4467 4.62951 21.4485 5.23573V5.24182Z" fill="#262626"/>
</g>
<defs>
<clipPath id="clip0_7_1001">
<rect width="31.2904" height="9.75723" fill="white" transform="translate(0.354736 0.12207)"/>
</clipPath>
</defs>
</svg>
