<svg width="16" height="16" viewBox="0 0 16 16" fill="none" xmlns="http://www.w3.org/2000/svg">
<g clip-path="url(#clip0_7_1011)">
<path d="M12.4592 8.4237C12.4521 7.13231 13.0373 6.1576 14.2218 5.43977C13.5591 4.49321 12.5579 3.97243 11.236 3.87039C9.98453 3.77186 8.61676 4.59878 8.11618 4.59878C7.58741 4.59878 6.37475 3.90558 5.42295 3.90558C3.45591 3.93725 1.36548 5.47144 1.36548 8.59261C1.36548 9.51453 1.53469 10.4669 1.8731 11.4499C2.32433 12.7413 3.95296 15.9082 5.65209 15.8554C6.54043 15.8343 7.16791 15.2255 8.32417 15.2255C9.44517 15.2255 10.0268 15.8554 11.0174 15.8554C12.7306 15.8308 14.2042 12.9524 14.6342 11.6575C12.3358 10.5772 12.4592 8.49056 12.4592 8.4237ZM10.464 2.64585C11.4263 1.50576 11.3382 0.467718 11.31 0.0947266C10.4604 0.14399 9.4769 0.671808 8.9164 1.32278C8.29949 2.0195 7.9364 2.88161 8.01395 3.85279C8.93402 3.92317 9.77302 3.45165 10.464 2.64585Z" fill="white"/>
</g>
<defs>
<clipPath id="clip0_7_1011">
<rect width="14.1312" height="15.8134" fill="white" transform="translate(0.934326 0.09375)"/>
</clipPath>
</defs>
</svg>
