<svg width="23" height="16" viewBox="0 0 23 16" fill="none" xmlns="http://www.w3.org/2000/svg">
<path d="M6.94685 0.75C7.62289 0.75 8.23997 0.811441 8.79811 0.93304C9.35624 1.05464 9.83286 1.25432 10.2305 1.53208C10.628 1.80984 10.9366 2.17848 11.1561 2.63928C11.3756 3.10008 11.4847 3.6684 11.4847 4.34552C11.4847 5.07639 11.3216 5.68567 10.9968 6.17335C10.6719 6.66103 10.1903 7.06039 9.55441 7.37143C10.4299 7.62871 11.0833 8.07927 11.5148 8.72183C11.9463 9.36439 12.162 10.1401 12.162 11.0476C12.162 11.7785 12.0228 12.4121 11.7443 12.9471C11.4659 13.4821 11.0909 13.9186 10.6193 14.2565C10.1477 14.5957 9.61086 14.8453 9.00757 15.0079C8.40051 15.1705 7.77465 15.2524 7.14753 15.2511L0.260498 15.2511L0.260498 0.75L6.94685 0.75ZM6.54926 6.61879C7.10614 6.61879 7.56394 6.48311 7.92265 6.21303C8.28136 5.94167 8.46072 5.50263 8.45946 4.89335C8.45946 4.55543 8.39926 4.27767 8.28011 4.06136C8.16095 3.84504 8.00167 3.6748 7.80224 3.5532C7.60282 3.4316 7.37455 3.34712 7.11617 3.29976C6.85027 3.2524 6.58061 3.22808 6.3097 3.22936L3.38606 3.22936L3.38606 6.62135L6.54926 6.61879ZM6.72861 12.7717C7.02336 12.773 7.31685 12.7423 7.60407 12.6809C7.88251 12.6194 8.12834 12.5183 8.34031 12.3762C8.55228 12.2341 8.7216 12.0409 8.84828 11.7977C8.9737 11.5545 9.03767 11.2421 9.03767 10.8633C9.03767 10.1196 8.83197 9.58711 8.42058 9.26967C8.00919 8.95095 7.46485 8.79223 6.78882 8.79223L3.38606 8.79223L3.38606 12.773L6.72861 12.7717ZM16.0928 12.4671C16.5167 12.8869 17.1275 13.0969 17.924 13.0969C18.4946 13.0969 18.985 12.9509 19.3964 12.6604C19.8078 12.3698 20.0599 12.0613 20.1527 11.7362H22.6399C22.2423 12.9957 21.6315 13.8956 20.8087 14.437C19.9859 14.9785 18.9913 15.2498 17.8236 15.2498C17.0146 15.2498 16.2847 15.118 15.635 14.8543C14.9853 14.5906 14.4347 14.2143 13.9831 13.7266C13.5316 13.2389 13.1829 12.6578 12.9384 11.9807C12.6938 11.3036 12.5709 10.5586 12.5709 9.74711C12.5709 8.96247 12.6963 8.23159 12.9484 7.55447C13.2005 6.87735 13.5592 6.29239 14.0233 5.79831C14.4873 5.30423 15.0417 4.91511 15.6851 4.63095C16.3286 4.34679 17.0422 4.20472 17.8249 4.20472C18.7003 4.20472 19.4629 4.37751 20.1139 4.72311C20.7636 5.06871 21.2979 5.53207 21.7155 6.11447C22.1332 6.69687 22.4355 7.35991 22.6211 8.10487C22.8067 8.84983 22.8732 9.62807 22.8205 10.4409L15.3979 10.4409C15.4368 11.3714 15.6688 12.0485 16.0928 12.4671ZM19.2873 6.94391C18.9487 6.56503 18.4344 6.37559 17.7446 6.37559C17.2931 6.37559 16.9181 6.45367 16.6208 6.60855C16.3223 6.76471 16.084 6.95671 15.9046 7.18711C15.7253 7.41751 15.5998 7.66071 15.5271 7.91799C15.4544 8.17527 15.4105 8.40567 15.3979 8.60791H19.9947C19.8605 7.87831 19.6247 7.32279 19.2873 6.94391ZM14.9138 1.486L20.6569 1.486V3.1116L14.9138 3.1116V1.486Z" fill="#C5C5C5"/>
</svg>
