<svg width="17" height="18" viewBox="0 0 17 18" fill="none" xmlns="http://www.w3.org/2000/svg">
<path d="M8.18835 17.1712C3.68449 17.1712 0.0227051 13.3614 0.0227051 8.67391C0.0227051 3.97976 3.68449 0.169922 8.18835 0.169922C12.6922 0.169922 16.354 3.97976 16.354 8.66726C16.354 13.3548 12.6922 17.1712 8.18835 17.1712ZM15.0717 9.83082C14.8357 9.75104 12.9155 9.15928 10.7274 9.51833C11.6396 12.1247 12.0096 14.2524 12.0798 14.6912C13.6491 13.5941 14.7655 11.8521 15.0717 9.83082ZM10.9124 15.3627C10.8103 14.7244 10.402 12.5037 9.42595 9.85742C9.41319 9.86407 9.39406 9.87072 9.3813 9.87072C5.4452 11.3002 4.03535 14.1393 3.90777 14.4053C5.08796 15.3627 6.57436 15.9345 8.18835 15.9345C9.15164 15.9412 10.0767 15.7351 10.9124 15.3627ZM3.00827 13.5343C3.16775 13.255 5.08158 9.95715 8.67956 8.7404C8.76888 8.70715 8.86457 8.68056 8.95388 8.65396C8.78163 8.24173 8.59025 7.8295 8.38611 7.42391C4.90295 8.50769 1.52187 8.46114 1.21565 8.4545C1.21565 8.52763 1.20928 8.60077 1.20928 8.67391C1.21565 10.5423 1.89187 12.2444 3.00827 13.5343ZM1.36238 7.1912C1.67497 7.19785 4.54571 7.21114 7.81196 6.30689C6.65729 4.16593 5.40693 2.37072 5.2283 2.11141C3.26982 3.06886 1.81532 4.94386 1.36238 7.1912ZM6.55522 1.61939C6.7466 1.88535 8.0161 3.68056 9.15802 5.86806C11.6396 4.89731 12.6858 3.43455 12.8134 3.24838C11.5822 2.11141 9.96182 1.41992 8.18835 1.41992C7.62696 1.41992 7.07833 1.49306 6.55522 1.61939ZM13.5853 4.08614C13.4386 4.29226 12.2712 5.85476 9.69389 6.95184C9.85337 7.29758 10.0129 7.64997 10.1596 8.00237C10.2106 8.1287 10.2617 8.25503 10.3127 8.37471C12.6348 8.06886 14.9378 8.56088 15.1674 8.60742C15.1483 6.89864 14.5614 5.32285 13.5853 4.08614Z" fill="#C5C5C5"/>
</svg>
