<svg width="19" height="19" viewBox="0 0 19 19" fill="none" xmlns="http://www.w3.org/2000/svg">
<path d="M9.71923 0.489258C7.34037 0.489258 7.04183 0.499873 6.10751 0.543265C5.17502 0.586843 4.53852 0.737504 3.98158 0.958561C3.40548 1.18688 2.91679 1.4923 2.42992 1.98935C1.94269 2.48622 1.64342 2.98494 1.41897 3.57269C1.20181 4.14125 1.054 4.79102 1.01203 5.74228C0.970422 6.69579 0.959473 7.00065 0.959473 9.42836C0.959473 11.8561 0.970057 12.1598 1.01239 13.1133C1.05528 14.065 1.20291 14.7145 1.41933 15.2829C1.64324 15.8708 1.94251 16.3696 2.42956 16.8664C2.91624 17.3637 3.40493 17.6698 3.98067 17.8982C4.53797 18.1192 5.17466 18.2699 6.10697 18.3135C7.04128 18.3568 7.33964 18.3675 9.71832 18.3675C12.0974 18.3675 12.395 18.3568 13.3293 18.3135C14.2618 18.2699 14.899 18.1192 15.4563 17.8982C16.0322 17.6698 16.5202 17.3637 17.0069 16.8664C17.4941 16.3696 17.7934 15.8708 18.0178 15.2831C18.2332 14.7145 18.381 14.0648 18.4248 13.1135C18.4668 12.16 18.4777 11.8561 18.4777 9.42836C18.4777 7.00065 18.4668 6.69598 18.4248 5.74247C18.381 4.79083 18.2332 4.14125 18.0178 3.57288C17.7934 2.98494 17.4941 2.48622 17.0069 1.98935C16.5197 1.49211 16.0324 1.18669 15.4558 0.958561C14.8974 0.737504 14.2605 0.586843 13.328 0.543265C12.3937 0.499873 12.0963 0.489258 9.71667 0.489258H9.71923ZM8.93345 2.10016C9.16667 2.09979 9.42689 2.10016 9.71923 2.10016C12.0579 2.10016 12.3351 2.10873 13.2587 2.15156C14.1127 2.19141 14.5762 2.33704 14.885 2.4594C15.2937 2.62142 15.5852 2.8151 15.8916 3.12797C16.1981 3.44084 16.3879 3.73881 16.547 4.15597C16.6669 4.4707 16.8098 4.94372 16.8487 5.81529C16.8906 6.75762 16.8998 7.04069 16.8998 9.42631C16.8998 11.8119 16.8906 12.095 16.8487 13.0373C16.8096 13.9089 16.6669 14.3819 16.547 14.6967C16.3883 15.1138 16.1981 15.4109 15.8916 15.7235C15.585 16.0364 15.2939 16.2301 14.885 16.3921C14.5766 16.515 14.1127 16.6603 13.2587 16.7001C12.3353 16.743 12.0579 16.7523 9.71923 16.7523C7.38034 16.7523 7.10314 16.743 6.17978 16.7001C5.32576 16.6599 4.86225 16.5143 4.5533 16.3919C4.14454 16.2299 3.85257 16.0362 3.54599 15.7234C3.23942 15.4105 3.04964 15.1133 2.89051 14.6959C2.77062 14.3812 2.62774 13.9082 2.58887 13.0366C2.5469 12.0943 2.5385 11.8112 2.5385 9.42408C2.5385 7.03696 2.5469 6.75538 2.58887 5.81305C2.62792 4.94149 2.77062 4.46846 2.89051 4.15336C3.04927 3.7362 3.23942 3.43823 3.54599 3.12536C3.85257 2.81249 4.14454 2.61881 4.5533 2.45642C4.86207 2.33351 5.32576 2.18825 6.17978 2.14821C6.98781 2.11096 7.30096 2.09979 8.93345 2.09792V2.10016ZM14.3948 3.58442C14.1869 3.58442 13.9837 3.64734 13.8108 3.76523C13.638 3.88311 13.5032 4.05067 13.4237 4.2467C13.3441 4.44273 13.3234 4.65843 13.3639 4.86652C13.4045 5.07462 13.5047 5.26575 13.6517 5.41575C13.7987 5.56576 13.9861 5.66789 14.19 5.70924C14.3939 5.75059 14.6053 5.72929 14.7973 5.64805C14.9894 5.5668 15.1535 5.42925 15.269 5.2528C15.3844 5.07635 15.446 4.86892 15.4459 4.65674C15.4459 4.06453 14.9751 3.58405 14.3948 3.58405V3.58442ZM9.71923 4.83776C7.23508 4.83776 5.22101 6.89319 5.22101 9.42836C5.22101 11.9635 7.23508 14.018 9.71923 14.018C12.2034 14.018 14.2169 11.9635 14.2169 9.42836C14.2169 6.89319 12.2032 4.83776 9.71905 4.83776H9.71923ZM9.71923 6.44866C11.3317 6.44866 12.639 7.78263 12.639 9.42836C12.639 11.0739 11.3317 12.4081 9.71923 12.4081C8.10662 12.4081 6.79949 11.0739 6.79949 9.42836C6.79949 7.78263 8.10662 6.44866 9.71923 6.44866Z" fill="#C5C5C5"/>
</svg>
