<svg width="19" height="16" viewBox="0 0 19 16" fill="none" xmlns="http://www.w3.org/2000/svg">
<path d="M16.8377 4.56529C16.8487 4.72717 16.8487 4.88906 16.8487 5.05245C16.8487 10.0307 13.1351 15.7722 6.34463 15.7722L6.34463 15.7692C4.33871 15.7722 2.37445 15.1858 0.685791 14.0802C0.977469 14.116 1.27061 14.1339 1.56448 14.1347C3.22682 14.1362 4.84165 13.5669 6.14945 12.5188C4.56971 12.4882 3.18442 11.437 2.70049 9.90241C3.25387 10.0113 3.82407 9.98895 4.36722 9.83751C2.64493 9.4824 1.40585 7.9381 1.40585 6.14464C1.40585 6.12823 1.40585 6.11256 1.40585 6.09689C1.91902 6.38859 2.49361 6.55048 3.08135 6.56839C1.45921 5.46202 0.959193 3.25973 1.93876 1.53788C3.8131 3.89162 6.57856 5.32251 9.54724 5.47395C9.24971 4.16541 9.65616 2.7942 10.6153 1.87434C12.1022 0.447923 14.4407 0.521035 15.8384 2.03772C16.6652 1.87136 17.4576 1.56175 18.1828 1.12308C17.9072 1.9952 17.3304 2.73601 16.5599 3.20676C17.2917 3.11873 18.0066 2.91879 18.6799 2.61366C18.1843 3.37163 17.56 4.03187 16.8377 4.56529Z" fill="#C5C5C5"/>
</svg>
