<svg width="25" height="24" viewBox="0 0 25 24" fill="none" xmlns="http://www.w3.org/2000/svg">
<path fill-rule="evenodd" clip-rule="evenodd" d="M21.3 2.24046L13.3 3.84047C12.83 3.93047 12.5 4.34048 12.5 4.82048V10.0005C12.5 10.5505 12.95 11.0005 13.5 11.0005H21.5C22.05 11.0005 22.5 10.5505 22.5 10.0005V3.22047C22.5 2.59047 21.92 2.12046 21.3 2.24046Z" fill="white"/>
<path fill-rule="evenodd" clip-rule="evenodd" d="M21.3 21.7605L13.3 20.1605C12.83 20.0705 12.5 19.6605 12.5 19.1805V14.0005C12.5 13.4505 12.95 13.0005 13.5 13.0005H21.5C22.05 13.0005 22.5 13.4505 22.5 14.0005V20.7805C22.5 21.4105 21.92 21.8805 21.3 21.7605Z" fill="white"/>
<path fill-rule="evenodd" clip-rule="evenodd" d="M9.28998 4.56057L3.28998 5.83056C2.82998 5.93056 2.5 6.34057 2.5 6.81057V10.0006C2.5 10.5506 2.95 11.0006 3.5 11.0006H9.5C10.05 11.0006 10.5 10.5506 10.5 10.0006V5.53057C10.5 4.90057 9.90998 4.42057 9.28998 4.56057Z" fill="white"/>
<path fill-rule="evenodd" clip-rule="evenodd" d="M9.28998 19.4405L3.28998 18.1705C2.82998 18.0705 2.5 17.6605 2.5 17.1905V14.0005C2.5 13.4505 2.95 13.0005 3.5 13.0005H9.5C10.05 13.0005 10.5 13.4505 10.5 14.0005V18.4705C10.5 19.1005 9.90998 19.5805 9.28998 19.4405Z" fill="white"/>
</svg>
